<?xml version="1.0" encoding="UTF-8" ?>
<!DOCTYPE svg PUBLIC "-//W3C//DTD SVG 1.1//EN" "http://www.w3.org/Graphics/SVG/1.1/DTD/svg11.dtd">
<svg width="705pt" height="705pt" viewBox="0 0 705 705" version="1.1" xmlns="http://www.w3.org/2000/svg">
<path fill="#000000" opacity="1.00" d=" M 335.90 1.56 C 341.15 0.53 346.77 0.30 351.53 3.04 C 379.07 -3.65 405.91 15.73 433.92 16.63 C 467.09 18.42 499.25 28.15 524.10 50.89 C 543.55 69.38 569.26 78.52 590.68 94.22 C 602.04 106.26 614.65 116.99 622.74 132.28 C 632.28 152.04 644.23 170.70 659.17 186.84 C 664.73 196.63 674.90 204.63 674.98 216.76 C 692.27 242.15 683.41 276.60 695.48 304.51 C 698.74 319.69 707.24 336.17 701.96 351.53 C 708.65 379.07 689.27 405.91 688.37 433.92 C 686.58 467.09 676.85 499.25 654.11 524.10 C 635.62 543.55 626.47 569.26 610.78 590.68 C 598.74 602.04 588.01 614.65 572.72 622.74 C 552.96 632.28 534.30 644.23 518.16 659.17 C 508.37 664.73 500.37 674.90 488.24 674.98 C 462.85 692.27 428.40 683.41 400.49 695.48 C 385.31 698.74 368.83 707.24 353.47 701.96 C 325.93 708.65 299.09 689.27 271.08 688.37 C 237.91 686.58 205.74 676.85 180.90 654.11 C 161.45 635.62 135.73 626.47 114.32 610.78 C 102.96 598.74 90.35 588.01 82.26 572.72 C 72.71 552.96 60.77 534.30 45.83 518.16 C 40.27 508.37 30.10 500.37 30.02 488.24 C 12.73 462.85 21.59 428.40 9.52 400.49 C 6.26 385.31 -2.24 368.83 3.04 353.47 C -3.65 325.93 15.73 299.09 16.63 271.08 C 18.42 237.91 28.15 205.74 50.89 180.90 C 69.38 161.45 78.52 135.73 94.22 114.32 C 106.26 102.96 116.99 90.35 132.28 82.26 C 152.04 72.71 170.70 60.77 186.84 45.83 C 196.63 40.27 204.63 30.10 216.76 30.02 C 239.07 14.40 269.16 20.45 294.56 12.60 C 308.07 7.89 321.99 4.78 335.90 1.56 M 333.61 9.72 C 318.20 13.34 302.93 17.82 288.03 22.98 C 289.74 27.17 292.21 31.88 289.29 36.19 C 286.07 32.69 285.69 27.85 285.36 23.34 C 268.74 25.21 251.86 25.93 235.44 29.31 C 232.86 30.77 227.31 31.74 228.40 35.61 C 236.13 36.10 244.56 37.83 248.30 45.75 C 253.28 51.19 244.35 62.68 254.07 64.05 C 261.08 64.13 258.24 73.13 263.62 75.24 C 270.30 77.14 274.18 83.59 278.85 88.15 C 275.60 94.22 267.13 89.52 265.96 83.97 C 258.10 84.36 255.68 78.27 254.26 72.00 C 250.74 69.89 240.50 74.57 241.17 67.19 C 245.75 59.64 246.13 45.08 236.21 42.13 C 232.08 48.69 222.73 53.26 214.94 50.23 C 210.33 61.05 220.70 68.43 229.52 71.64 C 236.95 79.21 218.33 81.38 225.19 87.99 C 229.42 92.42 226.46 97.24 223.38 101.15 C 226.39 106.10 224.58 115.41 217.34 113.76 C 217.44 106.04 216.84 98.30 219.74 91.03 C 216.68 85.66 215.36 80.23 219.87 75.05 C 206.49 67.52 205.43 49.15 216.44 39.79 C 197.10 40.38 183.44 62.15 167.06 72.06 C 169.72 76.17 173.03 80.01 174.07 84.94 C 167.19 84.02 167.20 70.00 160.20 76.16 C 145.36 86.31 122.98 90.42 115.01 107.63 C 128.56 100.54 144.08 108.35 146.86 123.21 C 153.44 122.12 158.11 126.06 163.01 130.15 C 170.16 129.59 175.83 133.88 182.56 135.50 C 184.93 140.59 176.03 144.05 173.28 139.63 C 168.73 134.21 160.20 142.46 157.12 133.99 C 153.61 124.25 145.30 140.32 140.31 132.47 C 141.43 123.59 138.01 109.48 126.58 110.36 C 124.02 117.78 117.78 124.02 110.36 126.58 C 109.48 138.01 123.59 141.43 132.47 140.31 C 140.14 145.91 123.58 154.38 135.05 158.24 C 141.50 161.01 134.07 168.87 139.46 172.56 C 143.86 175.53 141.10 184.85 135.48 182.58 C 135.00 176.82 129.80 172.70 130.51 166.78 C 131.38 159.02 119.92 156.43 123.77 148.24 C 120.17 143.40 110.35 144.22 108.03 137.01 C 101.85 130.95 107.33 120.40 106.88 115.10 C 90.23 124.14 85.99 145.84 75.77 160.82 C 70.68 167.40 83.47 167.87 84.87 173.92 C 79.71 173.58 76.26 169.70 72.17 167.16 C 61.57 180.64 49.50 193.04 40.71 207.86 C 39.37 210.65 37.39 219.69 42.19 215.17 C 49.40 206.05 65.28 206.40 71.42 216.54 C 74.14 222.69 78.77 216.92 82.98 216.67 C 92.39 223.27 104.55 213.91 113.84 218.13 C 114.19 229.42 101.75 220.08 97.05 226.16 C 92.77 230.47 88.41 224.34 84.14 223.18 C 81.91 228.03 73.46 236.21 70.27 227.67 C 68.42 218.75 59.27 211.06 50.37 215.14 C 53.67 223.44 47.03 231.62 42.05 236.96 C 47.51 250.07 62.69 239.81 71.06 242.88 C 66.21 257.09 83.96 254.15 84.64 266.25 C 89.98 267.60 93.93 275.84 88.12 278.95 C 83.03 273.95 76.96 269.38 74.54 262.45 C 69.30 259.06 62.32 258.30 61.79 250.18 C 51.65 251.79 39.49 248.25 36.57 237.24 C 36.48 233.96 36.26 224.31 32.08 229.94 C 23.51 246.84 26.29 267.01 23.23 285.30 C 27.64 286.43 32.25 286.94 36.31 289.18 C 31.91 291.95 27.09 290.23 22.92 288.04 C 17.88 305.32 10.20 322.37 9.15 340.58 C 8.52 343.35 10.84 348.52 12.99 344.04 C 18.20 330.31 34.79 328.61 45.64 335.92 C 48.72 329.64 55.54 329.71 61.73 329.13 C 66.32 323.92 73.06 322.25 79.04 319.20 C 84.72 320.65 79.57 329.88 74.85 329.38 C 67.91 327.77 68.14 339.81 60.85 336.34 C 50.95 331.67 55.04 351.38 45.27 345.92 C 39.03 339.38 29.77 333.68 20.98 340.09 C 25.56 347.49 25.45 357.47 21.02 364.92 C 29.98 371.63 40.14 364.84 46.60 358.26 C 54.15 356.05 51.61 369.53 57.99 368.80 C 64.43 366.41 68.00 370.93 71.38 375.30 C 76.46 374.80 85.41 381.13 79.82 385.74 C 73.46 383.41 66.55 381.01 61.74 375.87 C 54.78 376.32 48.87 373.96 44.90 369.11 C 34.44 377.12 17.93 373.83 12.99 360.96 C 10.08 355.94 8.60 363.10 9.29 365.84 C 11.26 383.39 17.76 400.23 22.98 416.97 C 27.17 415.26 31.88 412.79 36.19 415.71 C 32.69 418.93 27.85 419.30 23.34 419.64 C 25.21 436.26 25.93 453.13 29.31 469.56 C 30.77 472.14 31.74 477.69 35.61 476.60 C 36.10 468.87 37.83 460.43 45.75 456.70 C 51.19 451.71 62.68 460.65 64.05 450.93 C 64.13 443.92 73.13 446.76 75.24 441.38 C 77.14 434.69 83.59 430.82 88.15 426.15 C 94.22 429.40 89.52 437.87 83.97 439.04 C 84.36 446.89 78.27 449.32 72.00 450.74 C 69.89 454.26 74.57 464.50 67.19 463.83 C 59.64 459.25 45.08 458.87 42.13 468.79 C 48.69 472.92 53.26 482.27 50.23 490.06 C 61.05 494.67 68.43 484.30 71.64 475.48 C 79.21 468.05 81.38 486.66 87.99 479.81 C 92.42 475.57 97.24 478.54 101.15 481.62 C 106.10 478.60 115.41 480.42 113.76 487.66 C 106.04 487.56 98.30 488.16 91.03 485.26 C 85.66 488.32 80.23 489.64 75.05 485.13 C 67.52 498.51 49.15 499.57 39.79 488.56 C 40.38 507.89 62.15 521.56 72.06 537.94 C 76.17 535.28 80.01 531.97 84.94 530.93 C 84.02 537.81 70.00 537.80 76.16 544.80 C 86.31 559.64 90.42 582.02 107.63 589.99 C 100.54 576.44 108.35 560.92 123.21 558.14 C 122.12 551.56 126.06 546.89 130.15 541.99 C 129.59 534.84 133.88 529.16 135.50 522.44 C 140.59 520.07 144.05 528.97 139.63 531.72 C 134.21 536.27 142.46 544.80 133.99 547.88 C 124.25 551.39 140.32 559.70 132.47 564.69 C 123.59 563.57 109.48 566.99 110.36 578.42 C 117.78 580.98 124.02 587.22 126.58 594.64 C 138.01 595.52 141.43 581.41 140.31 572.53 C 145.91 564.86 154.38 581.41 158.24 569.95 C 161.01 563.49 168.87 570.93 172.56 565.54 C 175.53 561.14 184.85 563.90 182.58 569.52 C 176.82 570.00 172.70 575.20 166.78 574.49 C 159.02 573.61 156.43 585.08 148.24 581.23 C 143.40 584.82 144.22 594.65 137.01 596.97 C 130.95 603.14 120.40 597.67 115.10 598.12 C 124.14 614.77 145.84 619.01 160.82 629.23 C 167.40 634.32 167.87 621.53 173.92 620.13 C 173.58 625.28 169.70 628.73 167.16 632.83 C 183.35 643.63 196.28 662.49 216.26 665.95 C 214.20 659.84 205.79 654.03 209.00 645.73 C 207.93 635.81 225.41 632.94 216.83 623.38 C 222.96 613.43 214.23 600.95 218.13 591.16 C 229.42 590.80 220.08 603.25 226.16 607.95 C 230.47 612.23 224.34 616.58 223.18 620.86 C 228.03 623.08 236.21 631.54 227.67 634.73 C 218.75 636.58 211.06 645.73 215.14 654.63 C 223.44 651.32 231.62 657.96 236.96 662.95 C 250.07 657.49 239.81 642.31 242.88 633.94 C 257.09 638.79 254.15 621.04 266.25 620.36 C 267.60 615.02 275.84 611.07 278.95 616.88 C 273.95 621.97 269.38 628.04 262.45 630.46 C 259.06 635.70 258.30 642.67 250.18 643.21 C 251.79 653.35 248.25 665.51 237.24 668.43 C 233.96 668.52 224.31 668.73 229.94 672.92 C 246.84 681.48 267.01 678.71 285.30 681.77 C 286.43 677.35 286.94 672.74 289.18 668.69 C 291.95 673.09 290.23 677.90 288.04 682.08 C 305.32 687.12 322.37 694.80 340.58 695.85 C 343.35 696.47 348.52 694.16 344.04 692.01 C 330.31 686.80 328.61 670.21 335.92 659.36 C 329.64 656.28 329.71 649.45 329.13 643.27 C 323.92 638.68 322.25 631.94 319.20 625.96 C 320.65 620.28 329.88 625.43 329.38 630.15 C 327.77 637.08 339.81 636.86 336.34 644.15 C 331.67 654.05 351.38 649.96 345.92 659.73 C 339.38 665.97 333.68 675.22 340.09 684.02 C 347.49 679.43 357.47 679.55 364.92 683.98 C 371.63 675.01 364.84 664.86 358.26 658.40 C 356.05 650.85 369.53 653.39 368.80 647.01 C 366.41 640.57 370.93 636.99 375.30 633.62 C 374.80 628.54 381.13 619.59 385.74 625.18 C 383.41 631.54 381.01 638.45 375.87 643.26 C 376.32 650.21 373.96 656.14 369.11 660.10 C 377.12 670.55 373.83 687.07 360.96 692.01 C 355.94 694.92 363.10 696.40 365.84 695.71 C 383.39 693.74 400.23 687.24 416.97 682.02 C 415.26 677.83 412.79 673.11 415.71 668.81 C 418.93 672.32 419.30 677.14 419.64 681.66 C 436.26 679.79 453.13 679.07 469.56 675.69 C 472.14 674.23 477.69 673.26 476.60 669.39 C 468.87 668.90 460.43 667.16 456.70 659.25 C 451.71 653.80 460.65 642.32 450.93 640.95 C 443.92 640.87 446.76 631.87 441.38 629.76 C 434.69 627.86 430.82 621.41 426.15 616.85 C 429.40 610.77 437.87 615.48 439.04 621.03 C 446.89 620.63 449.32 626.72 450.74 633.00 C 454.26 635.10 464.50 630.42 463.83 637.81 C 459.25 645.36 458.87 659.92 468.79 662.87 C 472.92 656.31 482.27 651.73 490.06 654.77 C 494.67 643.95 484.30 636.57 475.48 633.36 C 468.05 625.78 486.66 623.61 479.81 617.01 C 475.57 612.58 478.54 607.76 481.62 603.85 C 478.60 598.90 480.42 589.59 487.66 591.24 C 487.56 598.96 488.16 606.70 485.26 613.97 C 488.32 619.34 489.64 624.77 485.13 629.95 C 498.51 637.48 499.57 655.85 488.56 665.21 C 507.89 664.62 521.56 642.85 537.94 632.94 C 535.28 628.83 531.97 624.99 530.93 620.06 C 537.81 620.97 537.80 634.99 544.80 628.84 C 559.64 618.69 582.02 614.58 589.99 597.37 C 576.44 604.46 560.92 596.65 558.14 581.79 C 551.56 582.88 546.89 578.93 541.99 574.85 C 534.84 575.41 529.16 571.12 522.44 569.50 C 520.07 564.41 528.97 560.95 531.72 565.37 C 536.27 570.79 544.80 562.54 547.88 571.01 C 551.39 580.75 559.70 564.68 564.69 572.53 C 563.57 581.41 566.99 595.52 578.42 594.64 C 580.98 587.22 587.22 580.98 594.64 578.42 C 595.52 566.98 581.41 563.57 572.53 564.69 C 564.86 559.08 581.41 550.61 569.95 546.76 C 563.49 543.98 570.93 536.13 565.54 532.44 C 561.14 529.47 563.90 520.15 569.52 522.42 C 570.00 528.18 575.20 532.30 574.49 538.22 C 573.61 545.97 585.08 548.57 581.23 556.76 C 584.82 561.60 594.65 560.77 596.97 567.99 C 603.14 574.04 597.67 584.60 598.12 589.90 C 614.77 580.86 619.01 559.16 629.23 544.18 C 634.32 537.60 621.53 537.13 620.13 531.08 C 625.28 531.41 628.73 535.30 632.83 537.84 C 643.63 521.65 662.49 508.72 665.95 488.74 C 659.84 490.79 654.03 499.21 645.73 496.00 C 635.81 497.07 632.94 479.59 623.38 488.17 C 613.43 482.04 600.95 490.77 591.16 486.87 C 590.80 475.58 603.25 484.91 607.95 478.84 C 612.23 474.52 616.58 480.66 620.86 481.82 C 623.08 476.97 631.54 468.79 634.73 477.33 C 636.58 486.25 645.73 493.93 654.63 489.86 C 651.32 481.56 657.96 473.38 662.95 468.04 C 657.49 454.92 642.31 465.18 633.94 462.12 C 638.79 447.91 621.04 450.85 620.36 438.75 C 615.02 437.40 611.07 429.16 616.88 426.05 C 621.97 431.05 628.04 435.62 630.46 442.55 C 635.70 445.95 642.67 446.69 643.21 454.82 C 653.35 453.21 665.51 456.75 668.43 467.76 C 668.52 471.04 668.73 480.68 672.92 475.06 C 681.48 458.16 678.71 437.99 681.77 419.70 C 677.35 418.56 672.74 418.05 668.69 415.82 C 673.09 413.05 677.90 414.77 682.08 416.96 C 687.12 399.67 694.80 382.63 695.85 364.42 C 696.47 361.65 694.16 356.48 692.01 360.96 C 686.80 374.69 670.21 376.39 659.36 369.08 C 656.28 375.36 649.45 375.27 643.27 375.87 C 638.68 381.07 631.94 382.75 625.96 385.80 C 620.28 384.34 625.43 375.11 630.15 375.62 C 637.08 377.23 636.86 365.18 644.15 368.66 C 654.05 373.32 649.96 353.61 659.73 359.08 C 665.97 365.62 675.22 371.32 684.02 364.91 C 679.43 357.51 679.55 347.53 683.98 340.08 C 675.01 333.36 664.86 340.17 658.40 346.74 C 650.85 348.94 653.39 335.46 647.01 336.20 C 640.57 338.59 636.99 334.07 633.62 329.70 C 628.54 330.20 619.59 323.87 625.18 319.26 C 631.54 321.58 638.45 323.99 643.26 329.13 C 650.21 328.67 656.14 331.04 660.10 335.89 C 670.55 327.88 687.07 331.16 692.01 344.04 C 694.92 349.05 696.40 341.90 695.71 339.16 C 693.74 321.61 687.24 304.77 682.02 288.03 C 677.83 289.74 673.11 292.21 668.81 289.29 C 672.32 286.07 677.14 285.69 681.66 285.36 C 679.79 268.74 679.07 251.86 675.69 235.44 C 674.23 232.86 673.26 227.31 669.39 228.40 C 668.90 236.13 667.16 244.56 659.25 248.30 C 653.80 253.28 642.32 244.35 640.95 254.07 C 640.87 261.08 631.87 258.24 629.76 263.62 C 627.86 270.30 621.41 274.18 616.85 278.85 C 610.77 275.60 615.48 267.13 621.03 265.96 C 620.63 258.10 626.72 255.68 633.00 254.26 C 635.10 250.74 630.42 240.50 637.81 241.17 C 645.36 245.75 659.92 246.13 662.87 236.21 C 656.31 232.08 651.73 222.73 654.77 214.94 C 643.95 210.33 636.57 220.70 633.36 229.52 C 625.78 236.95 623.61 218.33 617.01 225.19 C 612.58 229.42 607.76 226.46 603.85 223.38 C 598.90 226.39 589.59 224.58 591.24 217.34 C 598.96 217.44 606.70 216.84 613.97 219.74 C 619.34 216.68 624.77 215.36 629.95 219.87 C 637.48 206.49 655.85 205.43 665.21 216.44 C 664.62 197.10 642.85 183.44 632.94 167.06 C 628.83 169.72 624.99 173.03 620.06 174.07 C 620.97 167.19 634.99 167.20 628.84 160.20 C 618.69 145.36 614.58 122.98 597.37 115.01 C 604.46 128.56 596.65 144.08 581.79 146.86 C 582.88 153.44 578.93 158.11 574.85 163.01 C 575.41 170.16 571.12 175.83 569.50 182.56 C 564.41 184.93 560.95 176.03 565.37 173.28 C 570.79 168.73 562.54 160.20 571.01 157.12 C 580.75 153.61 564.68 145.30 572.53 140.31 C 581.41 141.43 595.52 138.01 594.64 126.58 C 587.22 124.02 580.98 117.78 578.42 110.36 C 566.98 109.48 563.57 123.59 564.69 132.47 C 559.08 140.14 550.61 123.58 546.76 135.05 C 543.98 141.50 536.13 134.07 532.44 139.46 C 529.47 143.86 520.15 141.10 522.42 135.48 C 528.18 135.00 532.30 129.80 538.22 130.51 C 545.97 131.38 548.57 119.92 556.76 123.77 C 561.60 120.17 560.77 110.35 567.99 108.03 C 574.04 101.85 584.60 107.33 589.90 106.88 C 580.86 90.23 559.16 85.99 544.18 75.77 C 537.60 70.68 537.13 83.47 531.08 84.87 C 531.41 79.71 535.30 76.26 537.84 72.17 C 521.65 61.37 508.72 42.51 488.74 39.05 C 490.79 45.15 499.21 50.97 496.00 59.27 C 497.07 69.19 479.59 72.05 488.17 81.62 C 482.04 91.57 490.77 104.05 486.87 113.84 C 475.58 114.19 484.91 101.75 478.84 97.05 C 474.52 92.77 480.66 88.41 481.82 84.14 C 476.97 81.91 468.79 73.46 477.33 70.27 C 486.25 68.42 493.93 59.27 489.86 50.37 C 481.56 53.67 473.38 47.03 468.04 42.05 C 454.92 47.51 465.18 62.69 462.12 71.06 C 447.91 66.21 450.85 83.96 438.75 84.64 C 437.40 89.98 429.16 93.93 426.05 88.12 C 431.05 83.03 435.62 76.96 442.55 74.54 C 445.95 69.30 446.69 62.32 454.82 61.79 C 453.21 51.65 456.75 39.49 467.76 36.57 C 471.04 36.48 480.68 36.26 475.06 32.08 C 458.16 23.51 437.99 26.29 419.70 23.23 C 418.56 27.64 418.05 32.25 415.82 36.31 C 413.05 31.91 414.77 27.09 416.96 22.92 C 399.67 17.88 382.63 10.20 364.42 9.15 C 361.65 8.52 356.48 10.84 360.96 12.99 C 374.69 18.20 376.39 34.79 369.08 45.64 C 375.36 48.72 375.27 55.54 375.87 61.73 C 381.07 66.32 382.75 73.06 385.80 79.04 C 384.34 84.72 375.11 79.57 375.62 74.85 C 377.23 67.91 365.18 68.14 368.66 60.85 C 373.32 50.95 353.61 55.04 359.08 45.27 C 365.62 39.03 371.32 29.77 364.91 20.98 C 357.51 25.56 347.53 25.45 340.08 21.02 C 333.36 29.98 340.17 40.14 346.74 46.60 C 348.94 54.15 335.46 51.61 336.20 57.99 C 338.59 64.43 334.07 68.00 329.70 71.38 C 330.20 76.46 323.87 85.41 319.26 79.82 C 321.58 73.46 323.99 66.55 329.13 61.74 C 329.71 55.53 329.65 48.73 335.92 45.63 C 328.80 35.12 330.11 18.67 343.43 13.38 C 350.77 8.38 336.48 8.86 333.61 9.72 Z" />
<path fill="#000000" opacity="1.00" d=" M 335.67 11.65 C 338.18 9.14 339.05 17.07 335.21 16.00 C 325.53 21.63 325.86 33.76 329.84 42.91 C 324.41 47.86 324.36 61.09 316.18 61.72 C 316.47 53.26 324.86 46.56 322.60 37.42 C 320.34 26.80 326.23 16.43 335.67 11.65 Z" />
<path fill="#000000" opacity="1.00" d=" M 368.09 11.04 C 379.82 15.51 384.45 28.91 382.33 40.48 C 381.37 48.41 388.95 54.13 388.82 61.72 C 380.63 61.08 380.57 47.83 375.15 42.87 C 377.63 35.03 380.57 24.94 372.91 18.93 C 371.63 16.47 364.78 14.36 368.09 11.04 Z" />
<path fill="#000000" opacity="1.00" d=" M 322.54 15.43 C 325.50 18.36 315.23 28.81 318.56 35.74 C 313.69 33.57 315.21 17.24 322.54 15.43 Z" />
<path fill="#000000" opacity="1.00" d=" M 380.95 15.09 C 392.95 13.36 387.66 45.97 386.61 30.89 C 386.74 25.09 382.17 20.60 380.95 15.09 Z" />
<path fill="#000000" opacity="1.00" d=" M 311.19 19.01 C 318.27 29.59 309.73 52.02 310.36 66.23 C 302.50 70.21 291.85 73.40 282.69 72.07 C 274.47 59.13 267.09 45.12 261.36 30.71 C 259.89 27.58 263.94 28.03 265.26 29.73 C 272.76 39.50 275.74 52.47 283.95 61.60 C 291.88 61.61 306.05 61.60 306.23 50.70 C 308.24 40.36 305.85 28.21 311.19 19.01 Z" />
<path fill="#000000" opacity="1.00" d=" M 392.28 19.16 C 400.90 27.99 394.41 46.34 401.29 57.62 C 407.22 60.86 414.37 61.66 421.04 61.53 C 430.47 52.08 431.67 35.40 442.99 28.06 C 441.52 43.57 429.27 57.41 422.91 71.71 C 413.95 73.67 403.11 70.74 395.02 66.71 C 393.84 51.46 389.61 33.32 392.28 19.16 Z" />
<path fill="#000000" opacity="1.00" d=" M 252.22 29.25 C 260.04 30.34 263.90 40.36 263.53 47.58 C 263.23 39.58 248.68 33.79 252.22 29.25 Z" />
<path fill="#000000" opacity="1.00" d=" M 451.31 29.30 C 454.13 28.64 456.46 31.67 452.97 32.90 C 447.12 35.99 444.37 41.96 441.47 47.53 C 440.73 40.38 444.83 32.41 451.31 29.30 Z" />
<path fill="#000000" opacity="1.00" d=" M 236.95 31.40 C 249.07 30.38 258.29 41.50 260.45 52.50 C 262.52 60.74 272.86 63.15 274.63 71.15 C 265.46 66.80 252.63 60.27 254.05 48.56 C 254.47 37.70 237.31 37.28 236.95 31.40 Z" />
<path fill="#000000" opacity="1.00" d=" M 463.87 31.53 C 467.57 29.27 472.40 34.72 465.10 35.07 C 454.56 36.75 449.28 47.52 450.38 57.26 C 443.71 61.63 438.31 69.08 430.29 71.11 C 431.54 63.57 441.04 61.56 443.54 54.42 C 446.29 44.31 452.43 33.24 463.87 31.53 Z" />
<path fill="#000000" opacity="1.00" d=" M 206.64 44.36 C 211.47 46.66 200.19 58.67 205.83 65.57 C 215.12 73.64 212.42 87.65 208.89 98.16 C 204.97 95.89 207.24 90.59 207.14 86.94 C 207.98 72.47 192.48 56.61 206.64 44.36 Z" />
<path fill="#000000" opacity="1.00" d=" M 496.05 44.09 C 510.94 50.85 501.78 70.59 498.04 82.03 C 496.37 87.31 500.93 94.25 496.07 98.16 C 492.44 90.69 493.51 81.77 492.53 73.75 C 503.22 66.66 500.99 53.65 496.05 44.09 Z" />
<path fill="#000000" opacity="1.00" d=" M 196.28 51.98 C 199.41 56.87 194.49 67.05 199.79 73.33 C 193.55 69.59 189.52 56.65 196.28 51.98 Z" />
<path fill="#000000" opacity="1.00" d=" M 507.88 51.78 C 515.84 55.56 511.61 69.51 504.96 73.12 C 509.88 66.63 507.08 58.80 507.88 51.78 Z" />
<path fill="#000000" opacity="1.00" d=" M 517.40 59.31 C 520.63 67.69 513.32 80.46 511.03 90.23 C 506.12 101.15 519.36 106.27 527.07 109.79 C 539.61 104.97 546.66 90.16 560.08 87.36 C 553.15 100.83 536.82 108.64 526.19 119.63 C 516.51 118.81 505.91 112.16 501.10 103.79 C 505.93 89.12 508.94 72.03 517.40 59.31 Z" />
<path fill="#000000" opacity="1.00" d=" M 187.15 60.23 C 196.96 70.54 198.42 90.28 203.68 104.55 C 198.08 112.13 188.44 118.97 178.82 119.63 C 167.45 110.16 155.81 100.89 145.41 90.36 C 143.10 85.91 148.57 87.68 150.69 89.22 C 159.60 95.92 167.53 104.10 177.22 109.68 C 183.88 107.96 190.54 103.86 194.73 98.19 C 195.20 85.27 185.07 72.34 187.15 60.23 Z" />
<path fill="#000000" opacity="1.00" d=" M 136.38 92.36 C 143.16 90.73 153.21 98.56 152.36 103.63 C 149.38 97.27 134.05 97.12 136.38 92.36 Z" />
<path fill="#000000" opacity="1.00" d=" M 564.54 92.49 C 579.79 93.82 553.78 97.75 552.54 103.54 C 551.67 100.32 559.17 92.69 564.54 92.49 Z" />
<path fill="#000000" opacity="1.00" d=" M 129.42 98.47 C 147.59 96.96 155.12 119.38 173.05 121.14 C 166.37 125.21 156.72 117.67 148.81 117.31 C 146.38 107.15 136.78 99.75 126.03 102.48 C 119.63 102.38 124.85 96.73 129.42 98.47 Z" />
<path fill="#000000" opacity="1.00" d=" M 569.69 98.60 C 572.97 96.95 587.61 98.97 579.65 102.56 C 568.57 99.29 559.24 107.01 555.96 117.11 C 548.07 118.51 540.79 122.96 532.62 122.58 C 531.48 118.09 541.65 118.10 544.54 115.52 C 554.46 112.12 558.52 99.47 569.69 98.60 Z" />
<path fill="#000000" opacity="1.00" d=" M 303.75 105.46 C 321.37 104.04 339.78 109.99 352.85 121.83 C 361.50 112.13 374.62 107.93 387.11 105.99 C 410.35 100.81 430.83 121.04 441.19 138.70 C 458.90 132.71 480.07 134.68 495.51 145.49 C 507.09 156.91 514.56 172.57 516.28 188.72 C 532.81 190.20 548.28 198.49 559.96 210.06 C 570.26 225.46 572.11 246.35 566.15 263.78 C 581.48 271.53 593.31 285.95 599.22 302.04 C 601.52 320.15 595.31 339.36 583.17 352.85 C 592.87 361.50 597.07 374.62 599.01 387.11 C 604.18 410.35 583.96 430.83 566.30 441.19 C 572.28 458.90 570.32 480.07 559.51 495.51 C 548.09 507.09 532.43 514.56 516.28 516.28 C 514.79 532.81 506.51 548.28 494.94 559.96 C 479.54 570.26 458.65 572.11 441.22 566.15 C 433.47 581.48 419.05 593.31 402.96 599.22 C 384.85 601.52 365.64 595.31 352.15 583.17 C 343.50 592.87 330.38 597.07 317.89 599.01 C 294.65 604.18 274.17 583.96 263.81 566.30 C 246.10 572.28 224.93 570.32 209.49 559.51 C 197.91 548.09 190.43 532.43 188.72 516.28 C 172.19 514.79 156.71 506.51 145.04 494.94 C 134.74 479.54 132.89 458.65 138.85 441.22 C 123.52 433.47 111.69 419.05 105.78 402.96 C 103.48 384.85 109.69 365.64 121.83 352.15 C 112.13 343.50 107.93 330.38 105.99 317.89 C 100.81 294.65 121.04 274.17 138.70 263.81 C 132.71 246.10 134.68 224.93 145.49 209.49 C 156.91 197.91 172.57 190.43 188.72 188.72 C 190.20 172.19 198.49 156.71 210.06 145.04 C 225.46 134.74 246.35 132.89 263.78 138.85 C 271.86 123.19 286.81 110.54 303.75 105.46 M 320.14 139.58 C 304.36 143.56 285.21 144.71 277.37 161.83 C 273.99 169.80 284.63 174.94 289.95 170.03 C 293.92 166.59 287.95 155.55 296.14 158.72 C 308.39 166.01 310.58 184.87 301.57 195.57 C 291.43 208.94 267.46 209.54 259.13 193.79 C 254.59 188.16 251.55 175.92 258.79 172.03 C 262.67 179.40 272.86 183.74 275.43 171.61 C 274.43 159.94 257.97 163.70 249.96 164.49 C 233.19 172.84 212.52 183.74 210.17 204.73 C 209.98 213.81 221.63 213.57 225.75 207.63 C 225.73 203.49 222.23 200.26 222.26 196.16 C 231.07 192.74 240.00 200.95 243.67 208.42 C 254.28 226.37 234.69 251.06 215.02 245.99 C 204.99 243.80 192.32 233.73 196.15 222.26 C 200.28 222.30 203.59 225.61 207.72 225.91 C 213.56 221.73 213.64 210.08 204.74 210.16 C 191.50 211.90 179.80 221.08 174.18 233.18 C 164.58 243.47 160.37 259.04 165.48 272.30 C 169.24 279.10 179.32 273.47 179.73 267.17 C 178.54 263.01 173.78 261.51 171.85 258.06 C 179.63 250.22 192.38 256.55 199.03 262.97 C 210.69 274.99 206.07 296.26 191.97 304.09 C 181.08 309.87 165.22 307.14 158.72 296.14 C 155.57 287.43 168.25 294.81 170.90 288.83 C 174.82 282.59 167.90 274.61 161.11 277.56 C 149.91 284.70 142.25 297.19 142.12 310.62 C 136.85 323.29 139.22 338.56 147.97 349.05 C 153.32 354.75 162.44 347.23 160.28 340.83 C 158.39 336.06 151.96 337.28 148.84 334.17 C 154.52 325.52 166.73 324.47 175.63 328.15 C 190.76 333.77 196.15 355.04 186.62 367.67 C 179.40 380.11 158.73 383.26 149.28 371.68 C 150.14 367.55 157.26 369.16 159.53 365.46 C 163.98 359.16 154.05 349.76 147.99 355.80 C 139.56 366.53 136.66 381.50 142.09 394.29 C 142.83 407.74 149.64 421.24 161.83 427.63 C 169.80 431.00 174.94 420.37 170.03 415.05 C 166.59 411.08 155.55 417.04 158.72 408.86 C 166.01 396.61 184.87 394.42 195.57 403.43 C 208.94 413.57 209.54 437.54 193.79 445.87 C 188.16 450.41 175.92 453.45 172.03 446.21 C 179.40 442.33 183.74 432.13 171.61 429.57 C 159.94 430.57 163.70 447.03 164.49 455.04 C 172.84 471.81 183.74 492.48 204.73 494.83 C 213.81 495.02 213.57 483.37 207.63 479.25 C 203.49 479.27 200.26 482.77 196.16 482.74 C 192.74 473.93 200.95 465.00 208.42 461.33 C 226.37 450.72 251.06 470.30 245.99 489.98 C 243.80 500.00 233.73 512.68 222.26 508.85 C 222.30 504.71 225.61 501.41 225.91 497.28 C 221.73 491.44 210.08 491.36 210.16 500.26 C 211.90 513.49 221.08 525.20 233.18 530.82 C 243.47 540.42 259.04 544.63 272.30 539.52 C 279.10 535.76 273.47 525.68 267.17 525.27 C 263.01 526.45 261.51 531.22 258.06 533.15 C 250.22 525.36 256.55 512.62 262.97 505.97 C 274.99 494.31 296.26 498.93 304.09 513.03 C 309.87 523.92 307.14 539.78 296.14 546.28 C 287.43 549.42 294.81 536.75 288.83 534.10 C 282.59 530.17 274.61 537.10 277.56 543.89 C 284.70 555.09 297.19 562.75 310.62 562.88 C 323.29 568.15 338.56 565.78 349.05 557.03 C 354.75 551.67 347.23 542.56 340.83 544.72 C 336.06 546.61 337.28 553.04 334.17 556.16 C 325.52 550.48 324.47 538.27 328.15 529.37 C 333.77 514.24 355.04 508.85 367.67 518.38 C 380.11 525.60 383.26 546.27 371.68 555.72 C 367.55 554.86 369.16 547.74 365.46 545.47 C 359.16 541.02 349.76 550.94 355.80 557.01 C 366.53 565.44 381.50 568.34 394.29 562.91 C 407.74 562.17 421.24 555.36 427.63 543.17 C 431.00 535.20 420.37 530.06 415.05 534.97 C 411.08 538.41 417.04 549.43 408.86 546.28 C 396.61 538.99 394.42 520.13 403.43 509.43 C 413.57 496.06 437.54 495.45 445.87 511.21 C 450.41 516.84 453.45 529.07 446.21 532.97 C 442.33 525.60 432.13 521.26 429.57 533.39 C 430.57 545.06 447.03 541.30 455.04 540.51 C 471.81 532.16 492.48 521.26 494.83 500.27 C 495.02 491.19 483.37 491.42 479.25 497.37 C 479.27 501.51 482.77 504.74 482.74 508.84 C 473.93 512.26 465.00 504.05 461.33 496.58 C 450.72 478.63 470.30 453.93 489.98 459.01 C 500.00 461.20 512.68 471.27 508.85 482.74 C 504.71 482.70 501.41 479.39 497.28 479.09 C 491.44 483.27 491.36 494.91 500.26 494.84 C 513.49 493.09 525.20 483.92 530.82 471.82 C 540.42 461.53 544.63 445.96 539.52 432.70 C 535.76 425.90 525.68 431.52 525.27 437.83 C 526.45 441.99 531.22 443.49 533.15 446.94 C 525.36 454.78 512.62 448.45 505.97 442.03 C 494.31 430.01 498.93 408.74 513.03 400.91 C 523.92 395.13 539.78 397.85 546.28 408.86 C 549.42 417.56 536.75 410.19 534.10 416.17 C 530.17 422.40 537.10 430.39 543.89 427.44 C 555.09 420.30 562.75 407.81 562.88 394.38 C 568.15 381.71 565.78 366.43 557.03 355.95 C 551.67 350.25 542.56 357.77 544.72 364.17 C 546.61 368.94 553.04 367.71 556.16 370.83 C 550.48 379.48 538.27 380.53 529.37 376.85 C 514.24 371.23 508.85 349.96 518.38 337.33 C 525.60 324.89 546.27 321.74 555.72 333.32 C 554.86 337.44 547.74 335.84 545.47 339.54 C 541.02 345.84 550.94 355.24 557.01 349.20 C 565.44 338.47 568.34 323.49 562.91 310.71 C 562.17 297.26 555.36 283.76 543.17 277.37 C 535.20 273.99 530.06 284.63 534.97 289.95 C 538.41 293.92 549.43 287.95 546.28 296.14 C 538.99 308.39 520.13 310.58 509.43 301.57 C 496.06 291.43 495.45 267.46 511.21 259.13 C 516.84 254.59 529.07 251.55 532.97 258.79 C 525.60 262.67 521.26 272.86 533.39 275.43 C 545.06 274.43 541.30 257.97 540.51 249.96 C 532.16 233.19 521.26 212.52 500.27 210.17 C 491.19 209.98 491.42 221.63 497.37 225.75 C 501.51 225.73 504.74 222.23 508.84 222.26 C 512.26 231.07 504.05 240.00 496.58 243.67 C 478.63 254.28 453.93 234.69 459.01 215.02 C 461.20 204.99 471.27 192.32 482.74 196.15 C 482.70 200.28 479.39 203.59 479.09 207.72 C 483.27 213.56 494.91 213.64 494.84 204.74 C 493.09 191.50 483.92 179.80 471.82 174.18 C 461.53 164.58 445.96 160.37 432.70 165.48 C 425.90 169.24 431.52 179.32 437.83 179.73 C 441.99 178.54 443.49 173.78 446.94 171.85 C 454.78 179.63 448.45 192.38 442.03 199.03 C 430.01 210.69 408.74 206.07 400.91 191.97 C 395.13 181.08 397.85 165.22 408.86 158.72 C 417.56 155.57 410.19 168.25 416.17 170.90 C 422.40 174.82 430.39 167.90 427.44 161.11 C 420.30 149.91 407.81 142.25 394.38 142.12 C 381.71 136.85 366.43 139.22 355.95 147.97 C 350.25 153.32 357.77 162.44 364.17 160.28 C 368.94 158.39 367.71 151.96 370.83 148.84 C 379.48 154.52 380.53 166.73 376.85 175.63 C 371.23 190.76 349.96 196.15 337.33 186.62 C 324.89 179.40 321.74 158.73 333.32 149.28 C 337.72 150.38 335.75 158.77 340.84 160.25 C 347.85 162.72 354.79 152.85 348.69 147.42 C 340.35 142.03 330.25 137.75 320.14 139.58 Z" />
<path fill="#000000" opacity="1.00" d=" M 99.16 123.21 C 104.39 121.17 102.09 129.79 102.19 132.10 C 101.62 141.18 110.05 145.77 117.11 149.04 C 117.82 156.88 125.20 166.35 121.15 173.06 C 118.76 153.31 91.67 144.96 99.16 123.21 Z" />
<path fill="#000000" opacity="1.00" d=" M 603.27 122.80 C 611.33 129.43 604.46 145.80 596.17 151.17 C 588.73 155.97 588.65 168.09 583.13 172.74 C 581.34 165.24 586.48 155.80 588.38 148.42 C 600.94 146.17 603.69 133.50 603.27 122.80 Z" />
<path fill="#000000" opacity="1.00" d=" M 93.17 135.33 C 97.22 138.42 98.03 148.91 103.84 153.13 C 96.88 151.29 89.82 141.91 93.17 135.33 Z" />
<path fill="#000000" opacity="1.00" d=" M 610.19 135.05 C 617.84 138.52 606.65 153.96 601.37 152.36 C 605.76 147.43 609.45 141.98 610.19 135.05 Z" />
<path fill="#000000" opacity="1.00" d=" M 87.36 144.92 C 100.83 151.85 108.64 168.18 119.63 178.81 C 118.81 188.49 112.16 199.08 103.79 203.90 C 89.24 200.01 74.62 195.24 60.65 189.40 C 56.73 186.67 62.07 185.67 64.58 186.37 C 75.72 188.70 86.24 193.86 97.58 194.93 C 103.76 191.47 107.10 184.28 109.79 177.93 C 104.97 165.39 90.16 158.34 87.36 144.92 Z" />
<path fill="#000000" opacity="1.00" d=" M 614.64 145.41 C 618.73 143.25 617.53 147.81 616.19 150.06 C 609.60 159.57 600.20 167.47 595.22 177.93 C 598.59 185.30 603.09 197.32 613.27 194.45 C 622.97 191.06 632.86 188.13 642.93 186.13 C 645.14 185.49 645.68 189.21 643.83 189.77 C 629.56 195.56 614.54 200.20 599.75 203.44 C 592.82 197.30 585.84 188.38 585.37 178.82 C 594.84 167.45 604.11 155.81 614.64 145.41 Z" />
<path fill="#000000" opacity="1.00" d=" M 318.28 182.26 C 329.14 187.94 339.61 196.55 352.11 199.95 C 364.99 197.11 375.64 187.94 386.72 182.26 C 393.69 192.31 400.67 203.61 410.89 211.37 C 421.95 211.53 433.50 213.06 443.88 208.11 C 446.39 206.52 450.16 207.79 450.53 210.92 C 451.10 222.49 454.89 233.63 460.09 243.89 C 470.47 251.69 484.66 252.72 496.42 255.80 C 495.84 268.49 491.11 281.97 493.81 294.99 C 501.71 302.27 508.65 311.00 518.98 315.01 C 522.58 315.70 523.93 319.70 521.35 322.26 C 513.36 330.61 509.22 341.59 505.06 352.11 C 507.89 364.99 517.06 375.64 522.74 386.72 C 512.69 393.69 501.39 400.67 493.63 410.89 C 493.47 421.95 491.94 433.50 496.89 443.88 C 498.48 446.39 497.21 450.16 494.08 450.53 C 482.50 451.10 471.37 454.89 461.11 460.09 C 453.31 470.47 452.28 484.66 449.20 496.42 C 436.51 495.84 423.02 491.11 410.01 493.81 C 402.73 501.71 393.99 508.65 389.99 518.98 C 389.29 522.58 385.30 523.93 382.74 521.35 C 374.39 513.36 363.40 509.22 352.89 505.06 C 340.01 507.89 329.36 517.06 318.28 522.74 C 311.31 512.69 304.33 501.39 294.11 493.63 C 283.05 493.47 271.50 491.94 261.12 496.89 C 258.61 498.48 254.83 497.21 254.47 494.08 C 253.90 482.50 250.11 471.37 244.91 461.11 C 234.53 453.31 220.33 452.28 208.58 449.20 C 209.16 436.51 213.89 423.02 211.19 410.01 C 203.29 402.73 196.35 393.99 186.02 389.99 C 182.41 389.29 181.07 385.30 183.65 382.74 C 191.64 374.39 195.77 363.40 199.94 352.89 C 197.11 340.01 187.94 329.36 182.26 318.28 C 192.31 311.31 203.61 304.33 211.37 294.11 C 211.53 283.05 213.06 271.50 208.11 261.12 C 206.52 258.61 207.79 254.83 210.92 254.47 C 222.49 253.90 233.63 250.11 243.89 244.91 C 251.69 234.53 252.72 220.33 255.80 208.58 C 268.49 209.16 281.97 213.89 294.99 211.19 C 304.27 202.75 311.70 192.39 318.28 182.26 M 319.48 190.06 C 311.97 198.67 306.19 209.27 296.13 215.32 C 284.28 219.35 271.86 214.75 259.89 214.40 C 255.90 225.51 255.34 238.15 247.68 247.69 C 238.11 255.04 225.77 256.97 214.33 259.64 C 214.54 271.78 219.24 284.03 215.28 296.02 C 209.49 306.48 197.66 311.93 190.00 320.21 C 194.06 331.69 204.60 341.45 203.56 354.57 C 202.27 365.88 193.65 374.49 190.00 384.78 C 197.80 393.25 210.03 398.69 215.67 409.60 C 219.03 421.36 214.80 433.36 214.40 445.11 C 225.51 449.10 238.15 449.66 247.69 457.32 C 255.04 466.89 256.97 479.22 259.64 490.67 C 271.78 490.45 284.03 485.76 296.02 489.72 C 306.48 495.51 311.93 507.34 320.21 515.00 C 331.69 510.94 341.45 500.40 354.57 501.44 C 365.88 502.73 374.49 511.35 384.78 515.00 C 393.25 507.20 398.69 494.97 409.60 489.33 C 421.36 485.97 433.36 490.20 445.11 490.60 C 449.10 479.48 449.66 466.84 457.32 457.31 C 466.89 449.95 479.22 448.03 490.67 445.36 C 490.45 433.22 485.76 420.97 489.72 408.98 C 495.51 398.52 507.34 393.07 515.00 384.79 C 510.94 373.30 500.40 363.55 501.44 350.43 C 502.73 339.12 511.35 330.51 515.00 320.22 C 507.20 311.75 494.97 306.31 489.33 295.40 C 485.97 283.64 490.20 271.64 490.60 259.89 C 479.48 255.90 466.84 255.34 457.31 247.68 C 449.95 238.11 448.03 225.77 445.36 214.33 C 433.22 214.54 420.97 219.24 408.98 215.28 C 398.52 209.49 393.07 197.66 384.79 190.00 C 373.30 194.06 363.55 204.60 350.43 203.56 C 338.82 202.49 330.23 192.72 319.48 190.06 Z" />
<path fill="#000000" opacity="1.00" d=" M 55.76 193.28 C 61.99 192.33 69.88 194.10 73.12 200.04 C 68.53 193.35 45.28 201.63 55.76 193.28 Z" />
<path fill="#000000" opacity="1.00" d=" M 642.64 193.44 C 645.66 192.15 654.31 192.69 652.51 197.83 C 645.40 196.38 638.21 196.19 631.67 199.79 C 633.47 195.51 638.52 194.28 642.64 193.44 Z" />
<path fill="#000000" opacity="1.00" d=" M 320.28 194.21 C 331.01 198.15 340.61 206.28 352.19 208.44 C 364.07 206.75 373.79 198.11 384.72 194.21 C 391.50 203.30 397.98 213.77 408.17 219.33 C 419.43 222.34 431.07 218.60 442.48 218.38 C 446.05 229.67 447.69 242.14 455.37 251.64 C 464.97 257.26 476.32 259.11 486.75 262.48 C 486.18 273.87 482.75 285.55 485.68 296.82 C 491.05 307.45 502.80 313.32 510.90 321.09 C 506.14 331.20 498.84 340.92 496.56 352.19 C 498.25 364.07 506.89 373.79 510.79 384.72 C 501.69 391.50 491.23 397.98 485.67 408.17 C 482.66 419.43 486.40 431.07 486.62 442.48 C 475.32 446.05 462.85 447.69 453.36 455.37 C 447.73 464.97 445.89 476.32 442.52 486.75 C 431.13 486.18 419.45 482.75 408.18 485.68 C 397.54 491.05 391.68 502.80 383.91 510.90 C 373.80 506.14 364.08 498.84 352.81 496.56 C 340.93 498.25 331.21 506.89 320.28 510.79 C 313.50 501.69 307.02 491.23 296.83 485.67 C 285.57 482.66 273.93 486.40 262.52 486.62 C 258.95 475.32 257.31 462.85 249.63 453.36 C 240.02 447.73 228.67 445.89 218.25 442.52 C 218.82 431.13 222.25 419.45 219.32 408.18 C 213.95 397.54 202.20 391.68 194.10 383.91 C 198.86 373.80 206.15 364.08 208.44 352.81 C 206.75 340.93 198.11 331.21 194.21 320.28 C 203.30 313.50 213.77 307.02 219.33 296.83 C 222.34 285.57 218.60 273.93 218.38 262.52 C 229.83 258.81 242.82 257.37 252.06 249.04 C 257.00 239.66 259.36 229.10 262.10 218.96 C 273.56 217.54 287.61 223.86 299.18 218.11 C 307.75 211.79 314.16 202.83 320.28 194.21 M 321.35 200.31 C 312.82 209.97 305.54 228.49 289.91 225.15 C 281.83 225.51 273.55 223.65 265.70 223.61 C 263.27 234.24 260.11 245.20 254.54 254.52 C 245.36 260.67 233.46 262.84 223.30 266.44 C 223.79 277.96 228.32 290.68 223.75 301.73 C 216.10 308.40 209.23 316.22 200.31 321.36 C 204.25 331.40 210.93 340.62 214.05 351.15 C 212.33 362.75 205.03 372.45 200.26 382.95 C 208.93 392.24 228.71 399.08 225.15 415.09 C 225.51 423.17 223.65 431.45 223.61 439.30 C 234.24 441.73 245.20 444.89 254.52 450.46 C 260.67 459.64 262.84 471.53 266.44 481.70 C 277.96 481.21 290.68 476.68 301.73 481.25 C 308.40 488.90 316.22 495.77 321.36 504.69 C 331.40 500.74 340.62 494.07 351.15 490.95 C 362.75 492.66 372.45 499.97 382.95 504.74 C 392.24 496.07 399.08 476.28 415.09 479.85 C 423.17 479.49 431.45 481.35 439.30 481.39 C 441.73 470.76 444.89 459.80 450.46 450.48 C 459.64 444.33 471.53 442.16 481.70 438.56 C 481.21 427.04 476.68 414.32 481.25 403.27 C 488.90 396.60 495.77 388.78 504.69 383.64 C 500.74 373.60 494.07 364.38 490.95 353.85 C 492.66 342.25 499.97 332.55 504.74 322.05 C 496.07 312.76 476.28 305.92 479.85 289.91 C 479.49 281.83 481.35 273.55 481.39 265.70 C 470.76 263.27 459.80 260.11 450.48 254.54 C 444.33 245.36 442.16 233.46 438.56 223.30 C 427.04 223.79 414.32 228.32 403.27 223.75 C 396.60 216.10 388.78 209.23 383.64 200.31 C 373.60 204.25 364.38 210.93 353.85 214.05 C 341.97 212.53 332.24 204.36 321.35 200.31 Z" />
<path fill="#000000" opacity="1.00" d=" M 56.04 200.67 C 67.32 198.82 76.38 208.57 87.59 207.20 C 91.01 207.01 96.18 205.08 98.16 208.93 C 90.69 212.56 81.77 211.49 73.75 212.47 C 66.66 201.78 53.65 204.01 44.09 208.95 C 44.42 203.43 51.61 201.94 56.04 200.67 Z" />
<path fill="#000000" opacity="1.00" d=" M 644.06 200.52 C 650.17 200.21 659.72 202.03 660.91 208.96 C 653.69 206.50 645.85 202.03 638.24 206.36 C 630.84 215.66 616.63 211.83 606.84 208.89 C 618.24 205.83 632.51 207.23 644.06 200.52 Z" />
<path fill="#000000" opacity="1.00" d=" M 32.31 236.10 C 35.39 245.58 44.23 256.97 56.58 254.43 C 61.70 260.40 68.77 266.75 71.11 274.71 C 63.57 273.46 61.56 263.96 54.42 261.46 C 43.28 259.38 28.11 248.26 32.31 236.10 Z" />
<path fill="#000000" opacity="1.00" d=" M 671.33 236.40 C 676.54 235.97 672.20 245.27 671.03 247.87 C 665.97 259.03 651.69 257.79 644.16 266.17 C 641.37 268.89 637.39 275.89 633.96 273.88 C 638.81 266.01 644.10 252.72 655.09 254.33 C 664.55 253.19 668.94 244.51 671.33 236.40 Z" />
<path fill="#000000" opacity="1.00" d=" M 328.74 238.42 C 344.30 244.46 359.73 243.13 375.43 238.10 C 386.74 250.62 401.30 254.71 417.55 255.35 C 424.02 270.20 434.51 281.38 449.67 287.42 C 450.05 303.35 453.24 318.16 466.58 328.74 C 460.54 344.30 461.87 359.73 466.90 375.43 C 454.38 386.74 450.29 401.30 449.65 417.55 C 434.80 424.02 423.62 434.51 417.58 449.67 C 401.65 450.05 386.84 453.24 376.26 466.58 C 360.69 460.54 345.27 461.87 329.57 466.90 C 318.25 454.38 303.70 450.29 287.45 449.65 C 280.97 434.80 270.49 423.62 255.33 417.58 C 254.94 401.65 251.76 386.84 238.42 376.26 C 244.46 360.69 243.13 345.27 238.10 329.57 C 250.62 318.25 254.71 303.70 255.35 287.45 C 270.20 280.97 281.38 270.49 287.42 255.33 C 303.35 254.94 318.16 251.76 328.74 238.42 M 331.34 243.35 C 324.54 247.48 318.70 253.20 313.86 259.49 C 306.28 257.66 298.40 259.04 290.85 260.37 C 283.36 268.05 285.15 283.08 272.38 284.37 C 258.37 286.75 256.05 302.00 259.58 313.90 C 253.13 318.50 247.78 324.66 243.40 331.21 C 244.83 338.59 248.17 345.45 251.47 352.15 C 248.73 359.23 244.80 366.04 243.35 373.66 C 247.48 380.46 253.20 386.30 259.49 391.14 C 257.66 398.72 259.04 406.59 260.37 414.15 C 268.05 421.64 283.08 419.84 284.37 432.62 C 286.75 446.63 302.00 448.95 313.90 445.42 C 318.50 451.87 324.66 457.21 331.21 461.60 C 338.59 460.16 345.45 456.82 352.15 453.53 C 359.23 456.27 366.04 460.19 373.66 461.65 C 380.46 457.52 386.30 451.80 391.14 445.51 C 398.72 447.34 406.59 445.95 414.15 444.63 C 421.64 436.95 419.84 421.92 432.62 420.63 C 446.63 418.25 448.95 403.00 445.42 391.10 C 451.87 386.50 457.21 380.33 461.60 373.79 C 460.16 366.41 456.82 359.55 453.53 352.85 C 456.27 345.77 460.19 338.96 461.65 331.34 C 457.52 324.54 451.80 318.70 445.51 313.86 C 447.34 306.28 445.95 298.40 444.63 290.85 C 436.95 283.36 421.92 285.15 420.63 272.38 C 418.25 258.37 403.00 256.05 391.10 259.58 C 386.50 253.13 380.33 247.78 373.79 243.40 C 366.41 244.83 359.55 248.17 352.85 251.47 C 345.77 248.73 338.96 244.80 331.34 243.35 Z" />
<path fill="#000000" opacity="1.00" d=" M 331.43 247.36 C 338.75 248.06 345.76 250.89 352.74 253.13 C 359.57 250.98 366.36 247.90 373.57 247.36 C 380.28 250.01 384.61 256.13 390.10 260.38 C 400.69 261.32 415.46 260.08 418.57 273.49 C 420.62 285.41 434.08 285.36 441.43 292.81 C 444.56 299.86 442.87 307.82 444.59 315.08 C 449.11 320.34 454.89 324.84 457.64 331.43 C 456.94 338.75 454.11 345.76 451.87 352.74 C 454.02 359.57 457.10 366.36 457.64 373.57 C 454.98 380.28 448.87 384.61 444.62 390.10 C 443.68 400.69 444.92 415.46 431.51 418.57 C 419.59 420.62 419.64 434.08 412.19 441.43 C 405.14 444.56 397.17 442.87 389.92 444.59 C 384.66 449.11 380.16 454.89 373.57 457.64 C 366.25 456.94 359.23 454.11 352.26 451.87 C 345.43 454.02 338.64 457.10 331.43 457.64 C 324.72 454.98 320.39 448.87 314.90 444.62 C 304.31 443.68 289.54 444.92 286.43 431.51 C 284.37 419.59 270.92 419.64 263.57 412.19 C 260.44 405.14 262.12 397.17 260.41 389.92 C 255.89 384.66 250.10 380.16 247.36 373.57 C 248.06 366.25 250.89 359.23 253.13 352.26 C 250.98 345.43 247.90 338.64 247.36 331.43 C 250.01 324.72 256.13 320.39 260.38 314.90 C 261.32 304.31 260.08 289.54 273.49 286.43 C 285.41 284.37 285.36 270.92 292.81 263.57 C 299.86 260.44 307.82 262.12 315.08 260.41 C 320.34 255.89 324.84 250.10 331.43 247.36 M 331.94 250.54 C 325.89 254.67 322.11 261.29 316.24 265.57 C 309.19 265.87 301.92 264.47 294.97 266.59 C 290.07 271.93 289.89 279.94 285.57 285.57 C 279.86 289.80 272.12 290.33 266.40 294.68 C 264.32 301.67 266.21 308.88 265.42 315.97 C 261.73 322.25 254.83 325.91 250.57 331.81 C 251.99 339.26 256.45 345.77 258.58 352.86 C 255.78 359.52 252.23 365.97 250.54 373.06 C 254.67 379.11 261.29 382.89 265.57 388.76 C 265.87 395.81 264.47 403.08 266.59 410.03 C 271.93 414.93 279.94 415.11 285.57 419.43 C 289.80 425.14 290.33 432.88 294.68 438.60 C 301.67 440.68 308.88 438.78 315.97 439.58 C 322.25 443.27 325.91 450.17 331.81 454.43 C 339.26 453.01 345.77 448.54 352.86 446.42 C 359.52 449.22 365.97 452.77 373.06 454.46 C 379.11 450.33 382.89 443.71 388.76 439.43 C 395.81 439.13 403.08 440.53 410.03 438.41 C 414.93 433.06 415.11 425.06 419.43 419.43 C 425.14 415.19 432.88 414.66 438.60 410.32 C 440.68 403.33 438.78 396.12 439.58 389.03 C 443.27 382.74 450.17 379.09 454.43 373.19 C 453.01 365.74 448.54 359.23 446.42 352.14 C 449.22 345.47 452.77 339.03 454.46 331.94 C 450.33 325.89 443.71 322.11 439.43 316.24 C 439.13 309.19 440.53 301.92 438.41 294.97 C 433.06 290.07 425.06 289.89 419.43 285.57 C 415.19 279.86 414.66 272.12 410.32 266.40 C 403.33 264.32 396.12 266.21 389.03 265.42 C 382.74 261.73 379.09 254.83 373.19 250.57 C 365.74 251.99 359.23 256.45 352.14 258.58 C 345.47 255.78 339.03 252.23 331.94 250.54 Z" />
<path fill="#000000" opacity="1.00" d=" M 30.43 250.36 C 34.85 254.10 40.30 261.39 47.53 263.53 C 40.49 264.48 26.43 258.44 30.43 250.36 Z" />
<path fill="#000000" opacity="1.00" d=" M 673.54 250.35 C 680.64 255.66 664.71 265.19 657.42 263.53 C 664.03 260.70 669.73 256.52 673.54 250.35 Z" />
<path fill="#000000" opacity="1.00" d=" M 332.96 256.54 C 340.36 256.00 346.36 261.82 352.88 263.98 C 358.96 261.11 364.95 256.17 372.04 256.54 C 378.00 259.59 381.99 265.22 385.81 270.51 C 392.82 270.09 400.71 267.78 407.18 271.65 C 412.48 276.28 412.55 284.08 414.85 290.24 C 421.07 291.61 427.98 292.93 432.91 297.26 C 437.13 303.80 434.80 311.92 434.50 319.12 C 439.73 323.02 445.41 326.98 448.46 332.96 C 449.00 340.36 443.18 346.36 441.02 352.88 C 443.88 358.96 448.83 364.95 448.46 372.04 C 445.41 378.00 439.77 381.99 434.49 385.81 C 434.91 392.82 437.22 400.71 433.35 407.18 C 428.72 412.48 420.91 412.55 414.76 414.85 C 413.38 421.07 412.07 427.98 407.74 432.91 C 401.20 437.13 393.08 434.80 385.88 434.50 C 381.98 439.73 378.02 445.41 372.04 448.46 C 364.64 449.00 358.64 443.18 352.12 441.02 C 346.04 443.88 340.05 448.83 332.96 448.46 C 327.00 445.41 323.00 439.77 319.19 434.49 C 312.18 434.91 304.29 437.22 297.82 433.35 C 292.52 428.72 292.45 420.91 290.15 414.76 C 283.92 413.38 277.02 412.07 272.09 407.74 C 267.87 401.20 270.20 393.08 270.50 385.88 C 265.26 381.98 259.59 378.02 256.54 372.04 C 256.00 364.64 261.82 358.64 263.98 352.12 C 261.11 346.04 256.17 340.05 256.54 332.96 C 259.59 327.00 265.22 323.00 270.51 319.19 C 270.09 312.18 267.78 304.29 271.65 297.82 C 276.28 292.52 284.08 292.45 290.24 290.15 C 291.61 283.92 292.93 277.02 297.26 272.09 C 303.80 267.87 311.92 270.20 319.12 270.50 C 323.02 265.26 326.98 259.59 332.96 256.54 M 334.37 261.28 C 328.41 264.00 324.85 269.90 320.48 274.53 C 313.92 275.57 306.88 272.80 300.56 275.35 C 296.71 280.54 295.24 287.04 293.06 293.02 C 287.21 295.57 280.49 296.57 275.35 300.58 C 272.81 306.88 275.52 313.91 274.59 320.45 C 269.96 325.07 263.09 328.47 261.17 335.09 C 262.60 341.15 265.48 346.83 268.30 352.37 C 266.30 358.33 262.32 363.65 261.17 369.89 C 263.26 376.37 269.85 379.95 274.53 384.52 C 275.57 391.07 272.80 398.12 275.35 404.44 C 280.54 408.29 287.04 409.75 293.02 411.94 C 295.57 417.78 296.57 424.52 300.58 429.65 C 306.88 432.19 313.91 429.47 320.45 430.41 C 325.07 435.04 328.47 441.90 335.09 443.83 C 341.15 442.40 346.83 439.51 352.37 436.70 C 358.33 438.70 363.65 442.68 369.89 443.83 C 376.37 441.74 379.95 435.15 384.52 430.47 C 391.07 429.42 398.12 432.19 404.44 429.65 C 408.29 424.46 409.75 417.95 411.94 411.98 C 417.78 409.42 424.52 408.43 429.65 404.42 C 432.19 398.12 429.47 391.09 430.41 384.55 C 435.04 379.93 441.90 376.52 443.83 369.91 C 442.40 363.85 439.51 358.17 436.70 352.63 C 438.70 346.66 442.68 341.35 443.83 335.11 C 441.74 328.63 435.15 325.05 430.47 320.48 C 429.42 313.92 432.19 306.88 429.65 300.56 C 424.46 296.71 417.95 295.24 411.98 293.06 C 409.42 287.21 408.43 280.49 404.42 275.35 C 398.12 272.81 391.09 275.52 384.55 274.59 C 379.93 269.96 376.52 263.09 369.91 261.17 C 363.85 262.60 358.17 265.48 352.63 268.30 C 346.42 266.50 340.93 261.60 334.37 261.28 Z" />
<path fill="#000000" opacity="1.00" d=" M 30.17 261.44 C 44.73 266.28 58.09 275.03 71.71 282.09 C 73.67 291.05 70.74 301.89 66.71 309.98 C 51.46 311.16 33.32 315.39 19.16 312.72 C 27.99 304.10 46.34 310.59 57.62 303.71 C 60.86 297.78 61.66 290.63 61.53 283.96 C 52.20 276.29 40.17 272.61 30.26 265.74 C 28.88 264.42 26.77 261.21 30.17 261.44 Z" />
<path fill="#000000" opacity="1.00" d=" M 673.56 261.56 C 676.37 259.99 677.56 262.54 675.78 264.73 C 666.17 272.49 653.34 275.62 643.80 283.39 C 642.07 292.57 644.68 308.33 657.38 306.52 C 665.82 309.27 682.98 304.01 685.75 313.52 C 669.84 313.77 653.63 312.31 638.02 309.99 C 635.47 301.36 630.64 291.18 633.29 282.09 C 646.33 274.61 659.53 267.19 673.56 261.56 Z" />
<path fill="#000000" opacity="1.00" d=" M 335.27 265.47 C 341.37 267.04 346.60 270.70 352.16 273.49 C 358.12 271.40 363.35 266.89 369.73 265.47 C 375.22 268.96 378.51 274.81 382.51 279.74 C 388.53 279.78 394.81 276.83 400.74 279.04 C 406.50 282.92 405.44 290.87 408.57 296.43 C 414.12 299.55 422.07 298.49 425.96 304.26 C 428.16 310.20 425.30 316.48 425.31 322.54 C 430.22 326.51 436.05 329.80 439.53 335.27 C 437.96 341.37 434.30 346.60 431.51 352.16 C 433.60 358.12 438.11 363.35 439.53 369.73 C 436.04 375.22 430.18 378.51 425.26 382.51 C 425.21 388.53 428.17 394.81 425.96 400.74 C 422.08 406.50 414.12 405.44 408.57 408.57 C 405.44 414.12 406.50 422.07 400.74 425.96 C 394.80 428.16 388.52 425.30 382.46 425.31 C 378.48 430.22 375.20 436.05 369.73 439.53 C 363.63 437.96 358.40 434.30 352.84 431.51 C 346.87 433.60 341.65 438.11 335.27 439.53 C 329.78 436.04 326.49 430.18 322.49 425.26 C 316.46 425.21 310.19 428.17 304.26 425.96 C 298.49 422.08 299.56 414.12 296.43 408.57 C 290.88 405.44 282.93 406.50 279.04 400.74 C 276.84 394.80 279.70 388.52 279.69 382.46 C 274.77 378.48 268.95 375.20 265.47 369.73 C 267.04 363.63 270.70 358.40 273.49 352.84 C 271.40 346.87 266.89 341.65 265.47 335.27 C 268.96 329.78 274.81 326.49 279.74 322.49 C 279.78 316.46 276.83 310.19 279.04 304.26 C 282.92 298.49 290.87 299.56 296.43 296.43 C 299.55 290.88 298.49 282.93 304.26 279.04 C 310.20 276.84 316.48 279.70 322.54 279.69 C 326.51 274.77 329.80 268.95 335.27 265.47 M 334.07 273.34 C 326.51 281.61 353.11 269.61 334.07 273.34 M 363.35 273.10 C 363.47 277.02 370.07 275.53 373.14 276.92 C 372.78 271.78 366.77 273.13 363.35 273.10 M 339.44 279.58 C 315.48 286.17 291.22 301.50 284.93 326.99 C 275.49 336.92 282.33 350.51 279.15 362.24 C 285.05 385.49 297.82 411.07 322.66 418.32 C 345.85 432.22 374.10 424.67 396.29 412.34 C 403.56 401.02 418.75 394.88 418.76 379.55 C 426.07 372.26 426.57 361.69 424.57 352.13 C 427.36 342.48 424.79 332.46 418.74 324.67 C 418.37 310.21 404.12 304.49 397.30 293.66 C 391.01 286.52 380.49 288.47 373.80 282.20 C 363.14 276.70 350.82 281.74 339.44 279.58 M 311.60 283.47 C 308.41 284.65 304.54 286.12 303.87 289.91 C 306.50 288.98 315.23 283.52 311.60 283.47 M 391.95 283.00 C 393.58 286.62 397.81 288.11 401.13 289.91 C 400.28 285.58 395.57 284.24 391.95 283.00 M 288.52 304.40 C 285.10 305.77 284.19 309.92 283.00 313.05 C 285.77 312.24 291.31 303.76 288.52 304.40 M 415.09 303.87 C 416.89 307.18 418.37 311.41 422.00 313.05 C 420.75 309.43 419.41 304.71 415.09 303.87 M 275.51 332.35 C 272.86 332.78 273.01 335.65 273.05 337.70 C 272.65 349.56 279.18 331.12 275.51 332.35 M 428.04 331.85 C 429.89 334.95 428.68 340.00 431.88 341.98 C 431.93 338.46 433.24 332.26 428.04 331.85 M 273.12 363.02 C 273.06 366.53 271.76 372.74 276.96 373.15 C 275.12 370.05 276.30 364.98 273.12 363.02 M 430.28 363.41 C 429.38 366.61 428.81 369.90 428.08 373.14 C 433.04 373.38 433.32 363.60 430.28 363.41 M 283.00 391.95 C 284.24 395.57 285.58 400.28 289.91 401.13 C 288.11 397.81 286.62 393.58 283.00 391.95 M 420.67 392.63 C 418.21 394.93 416.54 398.08 415.09 401.13 C 418.91 401.29 423.21 392.00 420.67 392.63 M 303.87 415.09 C 304.71 419.41 309.43 420.75 313.05 422.00 C 311.41 418.37 307.18 416.89 303.87 415.09 M 399.79 415.72 C 397.19 417.35 393.82 418.53 392.28 421.32 C 393.26 423.37 403.88 415.87 399.79 415.72 M 331.86 428.08 C 332.22 433.22 338.22 431.86 341.65 431.90 C 341.52 427.97 334.92 429.46 331.86 428.08 M 371.68 428.52 C 369.01 430.10 364.43 428.70 363.02 431.88 C 365.73 434.81 376.21 429.43 371.68 428.52 Z" />
<path fill="#000000" opacity="1.00" d=" M 348.50 283.42 C 395.29 278.25 435.35 330.16 418.04 374.05 C 407.91 410.97 362.27 432.61 327.36 416.58 C 293.42 405.57 274.74 363.98 286.74 330.76 C 294.87 304.20 320.67 284.40 348.50 283.42 M 338.78 289.58 C 303.03 297.81 278.65 338.44 292.68 373.23 C 301.85 405.98 342.00 424.87 373.23 412.32 C 406.17 403.11 425.21 362.40 412.00 331.13 C 403.29 300.63 368.99 284.20 338.78 289.58 Z" />
<path fill="#000000" opacity="1.00" d=" M 339.76 293.51 C 356.95 292.34 371.80 295.21 386.95 302.96 C 390.41 308.49 394.65 313.31 400.33 316.65 C 414.65 338.68 416.58 371.65 396.78 390.80 C 377.87 415.54 335.98 418.83 314.20 396.78 C 290.01 378.21 287.65 340.78 304.69 316.70 C 311.02 313.65 314.13 307.35 318.68 302.43 C 326.46 301.23 333.26 297.67 339.76 293.51 M 341.46 298.56 C 334.74 301.08 329.44 306.88 321.49 306.32 C 317.76 316.92 303.02 318.96 304.03 331.44 C 297.02 338.73 299.02 348.43 298.68 357.61 C 296.11 367.64 307.73 373.34 306.32 383.51 C 316.92 387.24 318.96 401.97 331.44 400.97 C 338.73 407.97 348.43 405.98 357.61 406.32 C 367.64 408.89 373.34 397.27 383.51 398.68 C 387.24 388.08 401.97 386.04 400.97 373.56 C 407.97 366.27 405.98 356.56 406.32 347.39 C 408.89 337.36 397.27 331.66 398.68 321.49 C 388.08 317.76 386.04 303.02 373.56 304.03 C 364.65 295.71 352.43 299.81 341.46 298.56 Z" />
<path fill="#000000" opacity="1.00" d=" M 342.58 309.31 C 351.19 315.99 362.32 304.06 367.43 315.40 C 379.44 311.87 380.68 324.79 389.68 328.44 C 385.96 338.72 401.06 342.45 392.63 352.16 C 395.82 357.75 396.96 364.69 389.60 367.43 C 393.43 379.47 380.07 379.92 377.23 389.34 C 370.95 389.31 365.61 389.27 362.42 395.69 C 353.81 389.01 342.68 400.93 337.57 389.60 C 325.53 393.43 325.08 380.07 315.66 377.23 C 315.69 370.95 315.73 365.61 309.31 362.42 C 315.99 353.81 304.06 342.68 315.40 337.57 C 311.57 325.53 324.93 325.08 327.77 315.66 C 334.05 315.69 339.38 315.73 342.58 309.31 Z" />
<path fill="#000000" opacity="1.00" d=" M 24.69 316.49 C 27.39 316.81 36.06 314.32 35.72 318.55 C 28.11 316.82 21.95 321.88 15.09 324.05 C 15.09 318.91 20.40 316.95 24.69 316.49 Z" />
<path fill="#000000" opacity="1.00" d=" M 58.54 316.32 C 68.69 319.03 46.86 326.27 43.54 329.54 C 35.38 328.30 24.56 323.79 18.42 332.60 C 17.77 336.63 8.64 340.36 12.31 334.37 C 21.88 315.20 44.53 328.07 58.54 316.32 Z" />
<path fill="#000000" opacity="1.00" d=" M 643.28 316.18 C 651.74 316.47 658.44 324.86 667.58 322.60 C 678.75 320.15 689.43 326.94 694.03 336.94 C 690.42 340.01 688.63 333.59 686.15 332.02 C 680.18 324.75 669.84 326.95 662.09 329.84 C 657.14 324.41 643.91 324.36 643.28 316.18 Z" />
<path fill="#000000" opacity="1.00" d=" M 671.63 316.46 C 677.52 315.96 689.28 315.55 689.89 324.05 C 683.52 322.30 677.97 316.95 670.91 318.52 C 667.89 319.25 669.13 315.62 671.63 316.46 Z" />
<path fill="#000000" opacity="1.00" d=" M 12.25 367.42 C 19.00 376.27 31.65 381.20 42.91 375.16 C 47.86 380.58 61.09 380.64 61.72 388.82 C 53.05 388.40 46.09 379.88 36.66 382.42 C 26.59 385.35 11.82 376.04 12.25 367.42 Z" />
<path fill="#000000" opacity="1.00" d=" M 691.41 367.22 C 692.74 366.84 694.80 367.99 693.41 369.40 C 688.37 380.36 675.64 384.27 664.52 382.33 C 656.59 381.37 650.87 388.95 643.28 388.82 C 643.92 380.63 657.16 380.57 662.13 375.15 C 672.72 379.82 685.32 378.34 691.41 367.22 Z" />
<path fill="#000000" opacity="1.00" d=" M 15.11 380.95 C 21.88 383.30 28.12 388.19 35.74 386.44 C 33.30 391.39 15.39 389.83 15.11 380.95 Z" />
<path fill="#000000" opacity="1.00" d=" M 687.70 381.65 C 695.44 385.09 670.31 394.56 669.28 386.45 C 675.99 387.80 681.87 384.47 687.70 381.65 Z" />
<path fill="#000000" opacity="1.00" d=" M 20.02 391.42 C 35.68 391.43 51.63 392.63 66.98 395.01 C 68.85 404.39 80.05 422.89 64.86 426.84 C 53.78 433.03 42.59 439.10 30.71 443.64 C 27.58 445.10 28.03 441.06 29.73 439.74 C 39.46 432.53 51.76 429.13 61.20 421.61 C 62.92 412.43 60.32 396.67 47.62 398.48 C 39.84 396.11 19.47 400.30 20.02 391.42 Z" />
<path fill="#000000" opacity="1.00" d=" M 676.24 391.50 C 679.17 391.98 687.87 389.34 685.30 394.41 C 673.44 398.72 659.69 395.97 647.89 400.71 C 644.00 406.55 643.42 414.17 643.47 421.04 C 652.92 430.47 669.60 431.67 676.94 442.99 C 661.43 441.52 647.59 429.27 633.29 422.91 C 631.33 413.95 634.26 403.11 638.29 395.02 C 650.72 393.25 663.59 392.36 676.24 391.50 Z" />
<path fill="#000000" opacity="1.00" d=" M 70.41 430.52 C 68.91 437.40 59.91 452.86 49.23 450.79 C 38.01 450.88 37.85 465.11 31.50 468.76 C 29.94 456.80 40.76 446.92 51.79 444.83 C 60.14 442.94 62.87 433.07 70.41 430.52 Z" />
<path fill="#000000" opacity="1.00" d=" M 633.89 430.29 C 641.43 431.54 643.44 441.04 650.58 443.54 C 661.67 446.22 673.46 454.02 673.81 466.61 C 674.88 470.07 667.84 469.39 669.93 465.10 C 668.25 454.56 657.48 449.28 647.74 450.38 C 643.37 443.71 635.92 438.31 633.89 430.29 Z" />
<path fill="#000000" opacity="1.00" d=" M 43.93 441.61 C 50.75 440.57 43.65 443.53 41.00 444.95 C 36.36 446.94 34.31 451.78 30.94 455.19 C 25.48 448.34 37.72 442.16 43.93 441.61 Z" />
<path fill="#000000" opacity="1.00" d=" M 657.47 441.47 C 664.57 440.37 679.67 447.19 674.06 455.19 C 669.94 448.97 664.37 444.33 657.47 441.47 Z" />
<path fill="#000000" opacity="1.00" d=" M 73.82 492.68 C 81.85 493.88 90.90 492.01 98.16 496.11 C 91.13 500.88 80.35 495.20 72.68 500.72 C 64.59 505.99 47.58 506.88 44.09 496.04 C 53.66 500.93 66.62 503.30 73.82 492.68 Z" />
<path fill="#000000" opacity="1.00" d=" M 626.71 492.71 C 633.71 490.25 636.14 500.23 643.01 500.10 C 649.28 502.79 656.39 495.61 660.86 496.84 C 652.83 510.65 634.56 501.68 622.97 498.04 C 617.69 496.37 610.74 500.93 606.84 496.07 C 612.85 492.68 620.11 493.89 626.71 492.71 Z" />
<path fill="#000000" opacity="1.00" d=" M 103.36 501.45 C 112.11 505.13 118.65 516.76 119.63 526.18 C 110.16 537.55 100.89 549.19 90.36 559.59 C 86.27 561.75 87.46 557.18 88.81 554.94 C 95.40 545.43 104.79 537.52 109.78 527.07 C 106.41 519.70 101.91 507.67 91.73 510.55 C 82.03 513.94 72.14 516.87 62.07 518.87 C 60.07 519.30 59.64 516.91 60.47 515.57 C 74.30 509.47 88.99 505.93 103.36 501.45 Z" />
<path fill="#000000" opacity="1.00" d=" M 600.45 501.25 C 615.30 504.21 630.12 509.94 644.35 515.60 C 647.92 518.01 643.79 519.23 641.23 518.76 C 629.77 516.58 619.03 511.15 607.42 510.07 C 601.24 513.53 597.90 520.72 595.21 527.07 C 600.03 539.61 614.84 546.66 617.64 560.08 C 604.17 553.15 596.36 536.82 585.37 526.19 C 586.01 516.54 592.81 506.86 600.45 501.25 Z" />
<path fill="#000000" opacity="1.00" d=" M 72.62 505.49 C 72.46 510.38 52.41 517.00 52.49 507.17 C 59.33 508.39 66.30 509.07 72.62 505.49 Z" />
<path fill="#000000" opacity="1.00" d=" M 631.88 504.96 C 638.37 509.88 646.20 507.08 653.22 507.88 C 649.44 515.84 635.49 511.61 631.88 504.96 Z" />
<path fill="#000000" opacity="1.00" d=" M 121.14 531.95 C 125.21 538.62 117.67 548.28 117.31 556.19 C 109.11 558.56 100.93 565.27 102.37 574.80 C 102.29 577.33 103.63 583.89 99.24 581.58 C 92.21 560.34 118.76 551.37 121.14 531.95 Z" />
<path fill="#000000" opacity="1.00" d=" M 583.13 532.26 C 586.26 550.12 613.06 560.36 605.84 581.79 C 600.61 583.83 602.90 575.20 602.81 572.90 C 603.38 563.82 594.94 559.22 587.89 555.96 C 586.83 548.08 580.93 539.75 583.13 532.26 Z" />
<path fill="#000000" opacity="1.00" d=" M 101.65 552.46 C 106.58 551.03 100.44 556.64 99.09 558.11 C 95.13 560.76 98.31 571.37 92.38 569.44 C 91.01 562.35 95.90 555.87 101.65 552.46 Z" />
<path fill="#000000" opacity="1.00" d=" M 601.06 551.88 C 607.85 552.98 617.40 565.96 610.18 569.91 C 609.40 562.78 605.28 557.39 601.06 551.88 Z" />
<path fill="#000000" opacity="1.00" d=" M 167.61 582.64 C 181.18 582.78 160.94 588.61 156.47 591.44 C 147.74 600.34 137.18 611.02 123.21 605.84 C 121.17 600.61 129.79 602.90 132.10 602.81 C 141.18 603.38 145.77 594.94 149.04 587.89 C 155.33 586.53 161.33 584.01 167.61 582.64 Z" />
<path fill="#000000" opacity="1.00" d=" M 533.40 582.41 C 541.32 582.39 548.44 586.58 556.19 587.69 C 558.56 595.89 565.27 604.07 574.80 602.63 C 577.33 602.71 583.89 601.37 581.58 605.76 C 568.91 610.09 557.93 601.85 550.31 592.64 C 546.92 588.19 530.37 587.16 533.40 582.41 Z" />
<path fill="#000000" opacity="1.00" d=" M 178.81 585.37 C 188.49 586.19 199.08 592.84 203.90 601.21 C 200.01 615.76 195.24 630.38 189.40 644.35 C 186.67 648.27 185.67 642.92 186.37 640.42 C 188.70 629.27 193.86 618.76 194.93 607.42 C 191.47 601.24 184.28 597.90 177.93 595.21 C 165.39 600.03 158.34 614.84 144.92 617.64 C 151.85 604.17 168.18 596.36 178.81 585.37 Z" />
<path fill="#000000" opacity="1.00" d=" M 522.41 585.47 C 535.46 589.75 545.39 602.63 556.57 611.43 C 559.29 612.75 562.32 619.46 557.04 617.07 C 546.10 611.41 538.41 600.20 527.07 595.22 C 519.70 598.59 507.67 603.09 510.55 613.27 C 513.94 622.97 516.87 632.86 518.87 642.93 C 519.30 644.92 516.91 645.36 515.57 644.53 C 509.42 630.31 505.48 615.27 501.32 600.45 C 505.91 593.19 514.68 588.75 522.41 585.47 Z" />
<path fill="#000000" opacity="1.00" d=" M 151.81 601.78 C 155.70 604.22 138.00 619.22 135.09 610.18 C 141.45 608.96 147.20 606.58 151.81 601.78 Z" />
<path fill="#000000" opacity="1.00" d=" M 551.93 601.21 C 557.49 604.89 562.55 609.83 569.95 610.19 C 565.91 616.99 553.05 608.38 551.93 601.21 Z" />
<path fill="#000000" opacity="1.00" d=" M 208.28 607.30 C 213.17 611.74 211.19 623.93 212.47 631.25 C 203.78 637.32 202.31 649.43 208.21 657.86 C 210.64 664.22 202.92 658.60 202.70 655.15 C 194.98 641.61 209.87 629.04 206.93 615.22 C 206.71 612.66 205.63 608.86 208.28 607.30 Z" />
<path fill="#000000" opacity="1.00" d=" M 496.11 606.84 C 500.88 613.87 495.20 624.65 500.72 632.32 C 505.99 640.41 506.88 657.42 496.04 660.91 C 498.50 653.69 502.97 645.85 498.64 638.24 C 489.34 630.84 493.17 616.63 496.11 606.84 Z" />
<path fill="#000000" opacity="1.00" d=" M 199.40 632.27 C 196.82 636.24 197.02 646.72 197.12 653.22 C 189.27 649.62 193.31 636.18 199.40 632.27 Z" />
<path fill="#000000" opacity="1.00" d=" M 283.97 632.46 C 292.67 633.30 303.52 633.15 310.39 639.01 C 310.87 654.22 315.50 671.90 312.72 685.84 C 304.10 677.01 310.59 658.66 303.71 647.38 C 297.78 644.14 290.63 643.34 283.96 643.47 C 274.53 652.92 273.32 669.60 262.01 676.94 C 264.38 661.47 275.34 645.20 283.97 632.46 Z" />
<path fill="#000000" opacity="1.00" d=" M 416.94 632.50 C 419.10 632.30 421.80 631.95 423.39 633.80 C 430.53 647.34 438.81 660.48 443.74 675.04 C 444.66 677.71 440.64 676.52 439.74 675.27 C 432.53 665.54 429.13 653.23 421.61 643.80 C 412.43 642.07 396.67 644.68 398.48 657.38 C 395.73 665.82 400.99 682.98 391.48 685.75 C 391.01 670.06 393.07 654.30 394.64 638.77 C 400.72 634.31 409.51 633.93 416.94 632.50 Z" />
<path fill="#000000" opacity="1.00" d=" M 505.21 631.67 C 511.71 634.80 516.25 652.01 507.17 652.51 C 508.61 645.40 508.81 638.21 505.21 631.67 Z" />
<path fill="#000000" opacity="1.00" d=" M 272.51 634.45 C 278.50 636.35 265.12 643.62 262.98 648.02 C 259.13 659.78 251.72 674.54 236.99 673.81 C 233.47 670.16 241.76 669.96 243.49 668.63 C 252.28 665.86 255.23 656.00 254.62 647.74 C 260.50 643.42 265.92 637.76 272.51 634.45 Z" />
<path fill="#000000" opacity="1.00" d=" M 430.30 633.86 C 436.59 634.79 440.42 640.37 445.41 643.68 C 454.33 646.53 447.60 657.43 453.98 662.85 C 456.48 669.39 467.25 667.80 468.76 673.50 C 456.02 675.16 446.51 663.18 444.25 651.81 C 441.94 643.98 432.11 641.65 430.30 633.86 Z" />
<path fill="#000000" opacity="1.00" d=" M 316.18 643.28 C 324.37 643.92 324.43 657.16 329.85 662.13 C 327.37 669.97 324.43 680.06 332.09 686.07 C 333.35 688.50 340.21 690.64 336.91 693.96 C 325.17 689.48 320.55 676.09 322.67 664.52 C 323.63 656.59 316.05 650.87 316.18 643.28 Z" />
<path fill="#000000" opacity="1.00" d=" M 386.46 643.18 C 393.13 646.19 381.38 655.86 382.41 662.35 C 384.80 674.91 380.58 688.80 368.06 694.03 C 364.99 690.42 371.38 688.63 372.98 686.15 C 380.25 680.18 378.05 669.84 375.16 662.09 C 379.53 656.21 381.32 648.41 386.46 643.18 Z" />
<path fill="#000000" opacity="1.00" d=" M 262.77 658.74 C 266.04 659.74 257.97 681.32 249.81 674.06 C 255.39 670.06 260.38 665.38 262.77 658.74 Z" />
<path fill="#000000" opacity="1.00" d=" M 441.47 657.42 C 444.28 664.37 448.98 669.92 455.19 674.06 C 447.06 679.71 440.63 664.55 441.47 657.42 Z" />
<path fill="#000000" opacity="1.00" d=" M 316.90 669.10 C 318.94 673.87 320.27 683.54 324.05 689.91 C 314.73 688.77 315.82 675.62 316.90 669.10 Z" />
<path fill="#000000" opacity="1.00" d=" M 387.27 669.16 C 390.31 673.67 390.04 689.20 380.95 689.89 C 384.36 683.54 387.00 675.28 387.27 669.16 Z" />
</svg>
